<svg width="64" height="77" viewBox="0 0 64 77" fill="none" xmlns="http://www.w3.org/2000/svg">
<path d="M32 9.427C24.5348 9.427 18.4614 15.404 18.4614 22.7508C18.4614 26.3164 19.8902 30.3625 22.2835 33.574C24.9905 37.2065 28.4414 39.2071 32 39.2071C35.5589 39.2071 39.0096 37.2067 41.7167 33.574C44.11 30.3625 45.5388 26.3164 45.5388 22.7508C45.5388 15.404 39.4652 9.427 32 9.427ZM32 36.3664C29.4222 36.3664 26.7291 34.7364 24.6112 31.894C22.5983 29.1931 21.3479 25.6896 21.3479 22.7508C21.3479 16.9704 26.1264 12.2677 32 12.2677C37.8736 12.2677 42.6521 16.9704 42.6521 22.7508C42.6523 28.7524 37.6368 36.3664 32 36.3664Z" fill="#121214"/>
<path d="M32 0C14.3553 0 0 14.1273 0 31.4923C0 48.857 14.3551 62.9846 32 62.9846C49.6449 62.9846 64 48.8572 64 31.4923C64 14.1273 49.6447 0 32 0ZM32 60.1439C26.208 60.1437 20.806 58.4699 16.2661 55.5889C16.4239 51.2391 18.4248 47.161 21.8128 44.3296C23.1591 43.2045 25.125 43.0815 26.7048 44.0237C28.4113 45.0414 30.1931 45.5575 32.0006 45.5575C33.8077 45.5575 35.5889 45.0416 37.2946 44.0245C38.8727 43.0832 40.8334 43.2016 42.1733 44.3189C45.5638 47.1464 47.5761 51.2362 47.7337 55.5893C43.1938 58.4701 37.7918 60.1439 32 60.1439ZM50.4545 53.6357C49.8312 49.1885 47.5659 45.0926 44.0394 42.1517C41.7513 40.2439 38.4396 40.02 35.7986 41.5951C33.302 43.0838 30.698 43.0836 28.2008 41.5943C25.5568 40.0174 22.239 40.2467 19.9443 42.1644C16.4209 45.109 14.1646 49.1932 13.543 53.6338C7.04092 48.3747 2.88649 40.4022 2.88649 31.4925C2.88649 15.6937 15.9469 2.84069 32 2.84069C48.0533 2.84069 61.1135 15.6937 61.1135 31.4923C61.1135 40.4032 56.9581 48.3766 50.4545 53.6357Z" fill="#121214"/>
<path d="M51.5754 66.7321H12.4246C11.6276 66.7321 10.9814 67.368 10.9814 68.1524C10.9814 68.9368 11.6276 69.5727 12.4246 69.5727H51.5754C52.3725 69.5727 53.0187 68.9368 53.0187 68.1524C53.0189 67.368 52.3725 66.7321 51.5754 66.7321Z" fill="#121214"/>
<path d="M51.5754 73.3203H12.4246C11.6276 73.3203 10.9814 73.9562 10.9814 74.7407C10.9814 75.5251 11.6276 76.161 12.4246 76.161H51.5754C52.3725 76.161 53.0187 75.5251 53.0187 74.7407C53.0189 73.9562 52.3725 73.3203 51.5754 73.3203Z" fill="#121214"/>
</svg>
